<?xml version="1.0" encoding="UTF-8"?>
<!DOCTYPE svg PUBLIC "-//W3C//DTD SVG 1.1//EN" "http://www.w3.org/Graphics/SVG/1.1/DTD/svg11.dtd">
<!-- Creator: CorelDRAW -->
<svg xmlns="http://www.w3.org/2000/svg" xml:space="preserve" width="512px" height="512px" style="shape-rendering:geometricPrecision; text-rendering:geometricPrecision; image-rendering:optimizeQuality; fill-rule:evenodd; clip-rule:evenodd"
viewBox="0 0 512 512"
 xmlns:xlink="http://www.w3.org/1999/xlink">
 <defs>
  <style type="text/css">
   <![CDATA[
    .fil0 {fill:black}
    .fil4 {fill:#2C3E50}
    .fil1 {fill:#34495E}
    .fil3 {fill:#3498DB}
    .fil2 {fill:white}
    .fil5 {fill:white;fill-rule:nonzero}
   ]]>
  </style>
 </defs>
 <g id="Layer_x0020_1">
  <metadata id="CorelCorpID_0Corel-Layer"/>
  <g id="_504799464">
   <path id="_504819456" class="fil0" d="M256 1.24252c140.699,0 254.757,114.058 254.757,254.757 0,140.699 -114.058,254.757 -254.757,254.757 -140.699,0 -254.757,-114.058 -254.757,-254.757 0,-140.699 114.058,-254.757 254.757,-254.757z"/>
  </g>
  <ellipse class="fil1" cx="256" cy="256" rx="249.758" ry="249.758"/>
  <g id="_504791208">
   <path id="_504800928" class="fil2" d="M256 63.6817c106.214,0 192.318,86.1038 192.318,192.318 0,106.214 -86.1038,192.318 -192.318,192.318 -106.214,0 -192.318,-86.1038 -192.318,-192.318 0,-106.214 86.1038,-192.318 192.318,-192.318z"/>
  </g>
  <circle class="fil3" cx="256" cy="256" r="187.318"/>
  <g id="_504808080">
   <path id="_504797856" class="fil2" d="M265.396 104.089l13.7268 -22.3761 21.1158 4.21891 4.04056 25.7174c6.43703,2.16142 12.7252,4.75513 18.8115,7.76341l21.0804 -15.3756 17.9233 11.9374 -6.08624 25.4741c5.12128,4.49411 9.94137,9.33074 14.4166,14.4709l25.6879 -6.12403 11.9268 17.9292 -15.6178 21.3898c2.89843,5.94333 5.40828,12.0744 7.50239,18.3473l26.328 4.15159 4.2071 21.1194 -23.0139 14.0989c0.166536,2.88899 0.2563,5.78033 0.2563,8.67404 0,3.23032 -0.105118,6.46065 -0.310631,9.68507l23.6091 14.6871 -4.35119 21.091 -27.2422 4.08308c-21.065,61.0065 -78.6321,102.159 -143.41,102.159 -64.6667,0 -122.168,-41.008 -143.321,-101.87l-27.495 -4.41261 -4.17993 -21.1241 23.6174 -14.4284c-0.21378,-3.28466 -0.324804,-6.57758 -0.324804,-9.86932 0,-3.17127 0.0980318,-6.34254 0.294095,-9.5079l-23.067 -13.9996 4.11615 -21.1371 26.745 -4.3323c2.06575,-6.05435 4.51655,-11.9752 7.33349,-17.719l-16.1835 -21.9674 11.8512 -17.9788 26.8737 6.27049c4.18938,-4.74332 8.67286,-9.22444 13.4174,-13.4115l-6.36144 -24.9284 17.7367 -12.2115 21.3556 15.0804c5.99529,-2.99056 12.1867,-5.57954 18.5268,-7.74569l3.71104 -26.2418 21.0497 -4.54135 14.5831 22.9737c3.23623,-0.205512 6.47955,-0.305906 9.72168,-0.305906 3.13466,0 6.26931,0.0956696 9.39924,0.287009zm-9.39924 22.682c-71.0979,0 -128.735,57.6368 -128.735,128.735 0,71.0979 57.6368,128.735 128.735,128.735 71.099,0 128.736,-57.6368 128.736,-128.735 0,-71.0979 -57.6368,-128.735 -128.736,-128.735z"/>
  </g>
  <path class="fil1" d="M255.996 105.532c3.47245,0 6.91538,0.118111 10.3288,0.350788l13.6418 -22.2367 18.7501 3.74647 4.01694 25.5674c7.09018,2.32324 13.9465,5.16143 20.5264,8.46971l20.9564 -15.2835 15.9142 10.6004 -6.05081 25.317c5.62088,4.86616 10.8792,10.141 15.7229,15.7819l25.5367 -6.08742 10.591 15.9213 -15.5245 21.2587c3.19607,6.44175 5.94805,13.1422 8.20514,20.0682l26.1792 4.12797 3.73584 18.7524 -22.8709 14.0115c0.201969,3.17836 0.315355,6.37915 0.315355,9.60712 0,3.56694 -0.129922,7.10199 -0.376773,10.6052l23.4674 14.5985 -3.8634 18.7276 -27.0887 4.06064c-20.0138,59.288 -76.0703,101.983 -142.113,101.983 -65.9317,0 -121.922,-42.5493 -142.022,-101.684l-27.3308 -4.38663 -3.71222 -18.7583 23.4839 -14.3469c-0.2563,-3.56694 -0.392127,-7.16695 -0.392127,-10.7989 0,-3.51025 0.121654,-6.99215 0.359056,-10.4433l-22.9347 -13.917 3.6567 -18.769 26.5832 -4.30631c2.23465,-6.70278 4.92876,-13.1941 8.04569,-19.4375l-16.0938 -21.8446 10.5237 -15.965 26.7095 6.23152c4.56734,-5.24293 9.49373,-10.1658 14.7402,-14.7308l-6.32718 -24.7891 15.7512 -10.8426 21.2174 14.9835c6.489,-3.29292 13.2496,-6.1264 20.2406,-8.46026l3.69214 -26.1024 18.691 -4.03348 14.4863 22.8237c3.51261,-0.24567 7.05829,-0.370867 10.6323,-0.370867zm0 19.5083c72.0546,0 130.466,58.4116 130.466,130.465 0,72.0546 -58.4116,130.466 -130.466,130.466 -72.0534,0 -130.465,-58.4116 -130.465,-130.466 0,-72.0534 58.4116,-130.465 130.465,-130.465z"/>
  <g id="_504811488">
   <path id="_504822528" class="fil2" d="M255.996 132.089c68.1604,0 123.417,55.2557 123.417,123.416 0,68.1604 -55.2569,123.416 -123.417,123.416 -68.1593,0 -123.416,-55.2557 -123.416,-123.416 0,-68.1604 55.2569,-123.416 123.416,-123.416z"/>
  </g>
  <path class="fil3" d="M255.996 133.819c67.2061,0 121.687,54.4809 121.687,121.686 0,67.2061 -54.4809,121.687 -121.687,121.687 -67.2049,0 -121.686,-54.4809 -121.686,-121.687 0,-67.2049 54.4809,-121.686 121.686,-121.686z"/>
  <path class="fil1" d="M179.209 192.423l153.576 0c0.936617,0 1.70315,0.765357 1.70315,1.70315l0 96.0405c0,0.936617 -0.766538,1.70315 -1.70315,1.70315l-153.576 0c-0.936617,0 -1.70315,-0.766538 -1.70315,-1.70315l0 -96.0405c0,-0.937798 0.766538,-1.70315 1.70315,-1.70315zm11.3965 13.0996l130.783 0 0 73.2463 -130.783 0 0 -73.2463z"/>
  <path class="fil1" d="M300.595 241.213c4.30631,1.22953 7.45987,5.1945 7.45987,9.89649 0,5.6823 -4.60631,10.2898 -10.2898,10.2898l-83.5361 0c-5.68348,0 -10.2898,-4.60749 -10.2898,-10.2898 0,-5.04332 3.62718,-9.23743 8.41538,-10.1197 -0.00472442,-0.129922 -0.00708664,-0.261024 -0.00708664,-0.392127 0,-7.27207 5.8949,-13.167 13.167,-13.167 1.16221,0 2.28898,0.151182 3.36261,0.434647 -0.0283465,-0.3626 -0.0437009,-0.728742 -0.0437009,-1.09843 0,-7.69963 6.24215,-13.9406 13.9418,-13.9406 3.18544,0 6.11931,1.0689 8.46735,2.86536 3.69332,-4.32639 9.18664,-7.0701 15.3213,-7.0701 11.1213,0 20.1367,9.01538 20.1367,20.1367 0,0.458269 -0.0165355,0.911814 -0.0460631,1.36182 0.308269,-0.0212599 0.617718,-0.033071 0.931893,-0.033071 6.57758,0 12.0284,4.82364 13.0087,11.126z"/>
  <g id="_504813840">
   <path id="_504809640" class="fil3" d="M267.933 268.687l0 0.00118111 -9.17956 9.61302 -0.702758 -7.16459c-0.103937,-1.05237 -0.996853,-1.85552 -2.05394,-1.85552 -1.05591,0 -1.95001,0.803152 -2.05276,1.85552l-0.702758 7.16459 -4.20356 -4.4008 -21.5351 -22.5638 1.89804 -2.263c6.61183,-7.88743 16.3004,-12.4205 26.5961,-12.4205 10.2969,0 19.9855,4.53308 26.5973,12.4205l1.89804 2.263 -16.5591 17.3504z"/>
  </g>
  <g id="_504817800">
   <path id="_504808152" class="fil4" d="M255.996 239.956c9.66499,0 18.3083,4.37009 24.0662,11.2394l-3.6945 3.87048c-4.77875,-5.97285 -12.1276,-9.79846 -20.3717,-9.79846 -8.24294,0 -15.593,3.8256 -20.3717,9.79846l-3.69332 -3.87048c5.75789,-6.86931 14.4012,-11.2394 24.065,-11.2394z"/>
   <path id="_504807360" class="fil3" d="M255.996 245.267c8.24412,0 15.593,3.8256 20.3717,9.79846l-2.34568 2.45788c-4.15277,-5.4071 -10.6819,-8.89373 -18.026,-8.89373 -7.34412,0 -13.8721,3.48662 -18.0249,8.89373l-2.34686 -2.45788c4.77875,-5.97285 12.1288,-9.79846 20.3717,-9.79846z"/>
   <path id="_504808440" class="fil4" d="M255.996 248.63c7.34412,0 13.8733,3.48662 18.026,8.89373l-3.72403 3.90237c-3.1441,-4.52364 -8.3764,-7.48467 -14.302,-7.48467 -5.92443,0 -11.1579,2.96103 -14.3008,7.48467l-3.72403 -3.90237c4.15277,-5.4071 10.6807,-8.89373 18.0249,-8.89373z"/>
   <path id="_504820104" class="fil3" d="M255.996 253.941c5.92561,0 11.1579,2.96103 14.302,7.48467l-2.38347 2.49568c-2.47914,-3.97324 -6.88939,-6.61656 -11.9185,-6.61656 -5.02797,0 -9.43822,2.64332 -11.9185,6.61656l-2.38229 -2.49568c3.14292,-4.52364 8.3764,-7.48467 14.3008,-7.48467z"/>
   <path id="_504807336" class="fil4" d="M255.996 257.305c5.02915,0 9.4394,2.64332 11.9185,6.61656l-3.86458 4.05001c-1.3193,-3.14647 -4.42797,-5.35632 -8.05396,-5.35632 -3.62481,0 -6.73349,2.20985 -8.05278,5.35632l-3.86576 -4.05001c2.48032,-3.97324 6.89057,-6.61656 11.9185,-6.61656z"/>
   <path id="_504817776" class="fil3" d="M255.996 262.615c3.626,0 6.73467,2.20985 8.05396,5.35632l-2.713 2.84292c-0.26693,-2.71536 -2.55591,-4.83545 -5.34096,-4.83545 -2.78387,0 -5.07285,2.12009 -5.33978,4.83545l-2.713 -2.84292c1.3193,-3.14647 4.42797,-5.35632 8.05278,-5.35632z"/>
  </g>
  <path class="fil4" d="M255.996 265.979c2.96458,0 5.36695,2.40237 5.36695,5.36576 0,2.96458 -2.40237,5.36695 -5.36695,5.36695 -2.96339,0 -5.36576,-2.40237 -5.36576,-5.36695 0,-2.96339 2.40237,-5.36576 5.36576,-5.36576z"/>
  <path class="fil1" d="M352.316 299.713c-1.71615,10.9926 -11.2855,19.4729 -22.7398,19.4729l-147.158 0c-11.4544,0 -21.0237,-8.48034 -22.7398,-19.4729l192.637 0zm-110.296 6.00711l27.8824 0 0 6.41813 -27.8824 0 0 -6.41813z"/>
  <polygon class="fil5" points="64.4293,198.518 36.3202,188.841 32.8619,198.883 27.1371,196.908 36.3958,170.025 42.1194,171.993 38.6706,182.008 66.7786,191.691 "/>
  <polygon id="1" class="fil5" points="71.3695,177.367 39.7702,160.567 52.2285,137.132 57.5777,139.974 48.5116,157.024 55.512,160.75 63.9451,144.884 69.2707,147.716 60.8364,163.583 69.436,168.149 78.8199,150.5 84.1455,153.332 "/>
  <polygon id="12" class="fil5" points="86.8609,147.175 59.0459,124.65 63.5955,119.033 75.9451,129.033 72.7868,107.684 78.8943,100.133 81.253,119.384 107.178,122.091 101.286,129.358 82.0443,126.434 83.0034,134.75 91.4117,141.558 "/>
  <polygon id="123" class="fil5" points="109.336,119.042 84.9286,92.8763 90.07,88.0845 117.078,95.5668 100.778,78.0935 105.687,73.5179 130.094,99.6842 124.794,104.634 98.3283,97.4011 114.245,114.467 "/>
  <polygon id="1234" class="fil5" points="136.528,95.6176 116.002,66.3097 121.92,62.1675 142.444,91.4755 "/>
  <polygon id="12345" class="fil5" points="147.886,87.2672 130.536,55.975 136.861,52.4683 144.561,66.3663 149.619,45.3934 158.119,40.6844 153.094,59.4002 176.102,71.6258 167.927,76.1506 151.185,66.2341 148.961,74.3093 154.203,83.7593 "/>
  <polygon id="123456" class="fil5" points="192.869,66.0179 181.809,31.9926 188.685,29.7603 199.734,63.7844 "/>
  <polygon id="1234567" class="fil5" points="206.162,61.9348 199.952,26.693 206.87,25.4765 225.445,46.46 221.294,22.9347 227.903,21.7678 234.12,57.0014 226.978,58.2592 208.719,37.7848 212.777,60.7679 "/>
  <polygon id="12345678" class="fil5" points="241.801,56.0092 241.177,20.2335 265.702,19.8095 265.809,25.8591 248.509,26.1674 248.652,34.6348 263.585,34.3678 263.693,40.4257 248.76,40.6844 249.027,55.884 "/>
  <path id="123456789" class="fil5" d="M274.369 38.0517c0.633073,-3.59174 1.69961,-6.50908 3.19962,-8.74963 1.12559,-1.65827 2.5004,-3.0756 4.13387,-4.25907 1.64174,-1.1752 3.34135,-1.96654 5.11655,-2.36694 2.35867,-0.542128 4.97482,-0.557482 7.84136,-0.0578742 5.19096,0.916538 9.05908,3.25749 11.6079,7.03349 2.55001,3.76655 3.31773,8.52522 2.30906,14.2571 -1.0004,5.69293 -3.33426,9.86696 -6.99215,12.5339 -3.65789,2.66694 -8.07522,3.5504 -13.2579,2.63269 -5.23348,-0.924806 -9.11696,-3.25749 -11.6504,-6.99923 -2.5252,-3.74174 -3.30001,-8.41656 -2.30788,-14.0245zm7.37483 1.04882c-0.707482,3.99214 -0.317718,7.18349 1.15866,9.56696 1.48347,2.38465 3.64017,3.82442 6.47364,4.32521 2.84174,0.500789 5.35041,-0.115748 7.52601,-1.83308 2.17442,-1.72441 3.62481,-4.62521 4.35001,-8.71656 0.707482,-4.03348 0.359056,-7.20829 -1.06772,-9.49964 -1.41615,-2.29961 -3.59056,-3.70867 -6.52443,-4.226 -2.93269,-0.516143 -5.47443,0.067323 -7.62522,1.76812 -2.14961,1.69016 -3.58348,4.56497 -4.29096,8.61499z"/>
  <path id="12345678910" class="fil5" d="M310.534 63.7089l11.0504 -34.0241 14.4662 4.69135c3.63426,1.18465 6.17482,2.3504 7.62522,3.5008 1.44922,1.14095 2.41654,2.65749 2.89962,4.54135 0.483072,1.88268 0.392127,3.83269 -0.257481,5.84057 -0.833861,2.55946 -2.26772,4.4256 -4.30867,5.6008 -2.04213,1.1752 -4.62521,1.49174 -7.75042,0.957877 1.2,1.34292 2.11772,2.69292 2.7508,4.05001 0.633073,1.35 1.33347,3.60946 2.11536,6.79254l2.00079 7.9831 -8.21695 -2.66812 -2.56654 -9.01538c-0.900003,-3.21733 -1.56615,-5.27482 -1.99134,-6.176 -0.425198,-0.898822 -0.967326,-1.59922 -1.60867,-2.09056 -0.641341,-0.49134 -1.7504,-0.992129 -3.33308,-1.50827l-1.39134 -0.450001 -4.61694 14.2075 -6.86695 -2.23347zm13.2496 -17.4071l5.08348 1.65709c3.29292,1.06772 5.40002,1.6004 6.30829,1.58386 0.908271,-0.00708664 1.70788,-0.283465 2.39174,-0.807877 0.68386,-0.53386 1.19292,-1.30867 1.52599,-2.33387 0.374411,-1.14095 0.366143,-2.16615 -0.0177166,-3.06733 -0.382678,-0.907089 -1.09961,-1.63229 -2.14961,-2.17324 -0.532679,-0.258662 -2.19095,-0.842129 -4.97482,-1.7504l-5.36695 -1.74213 -2.8004 8.63388z"/>
  <polygon id="1234567891011" class="fil5" points="344.251,76.2924 361.6,45.0013 371.059,50.2431 364.9,74.7345 382.35,56.5006 391.826,61.7518 374.484,93.0428 368.609,89.7936 382.267,65.1593 362.401,86.3507 356.317,82.9762 363.776,54.9096 350.126,79.5428 "/>
  <path id="123456789101112" class="fil5" d="M404.308 119.651l-6.01655 -5.05041 2.83347 -8.23349 -10.9583 -9.19137 -7.48349 4.32521 -5.87482 -4.92521 33.6745 -18.4501 5.85002 4.90868 -12.0248 36.6166zm-1.08307 -19.3926l4.75041 -13.3406 -12.2339 7.06538 7.48349 6.27522z"/>
  <polygon id="12345678910111213" class="fil5" points="408.566,126.668 431.674,107.951 424.991,99.6913 429.699,95.8834 447.599,117.992 442.891,121.8 436.224,113.567 413.117,132.284 "/>
  <polygon id="1234567891011121314" class="fil5" points="422.106,144.442 452.123,124.95 456.057,131.009 426.049,150.5 "/>
  <polygon id="123456789101112131415" class="fil5" points="429.391,156.375 460.99,139.575 464.383,145.949 450.349,153.408 471.24,158.841 475.799,167.416 457.166,162.065 444.541,184.867 440.158,176.608 450.365,160.042 442.331,157.674 432.782,162.749 "/>
  <path id="12345678910111213141516" class="fil5" d="M453.649 220.083l-2.16615 -7.54963 6.94963 -5.24057 -3.94135 -13.7504 -8.62562 -0.600002 -2.11654 -7.36656 38.2336 3.53269 2.10827 7.34175 -30.4418 23.6327zm9.94255 -16.6819l11.3989 -8.40003 -14.0906 -0.983861 2.69174 9.38389z"/>
  <path class="fil5" d="M32.2548 313.503m0.987405 2.86891l28.2013 -9.70987 3.1441 9.13349c1.19174,3.45946 1.82599,5.76852 1.90512,6.91538 0.135827,1.76103 -0.315355,3.43702 -1.35827,5.01498 -1.04292,1.57796 -2.68702,2.75316 -4.92521,3.52442 -1.73504,0.59764 -3.30119,0.784254 -4.69253,0.557482 -1.39961,-0.222048 -2.59961,-0.698034 -3.60946,-1.43741 -1.00276,-0.734648 -1.78819,-1.56497 -2.34922,-2.48977 -0.73701,-1.26615 -1.55197,-3.18899 -2.44016,-5.76852l-1.27796 -3.70985 -10.637 3.66261 -1.96064 -5.69293zm25.3879 -2.37284l-7.99727 2.75316 1.07244 3.11221c0.772443,2.24646 1.43504,3.69922 1.99016,4.35238 0.55512,0.653152 1.2189,1.08544 1.99725,1.30276 0.778349,0.210237 1.5815,0.175985 2.41536,-0.111024 1.02402,-0.353151 1.76812,-0.947247 2.22875,-1.78229 0.457088,-0.825593 0.614175,-1.73859 0.461812,-2.71418 -0.103937,-0.727561 -0.514962,-2.11418 -1.22126,-4.1634l-0.947247 -2.74961zm-17.3339 25.7528m14.1922 -4.33466c2.78032,-1.23662 5.29017,-1.86142 7.54609,-1.86969 1.65827,0.00590553 3.28466,0.292914 4.86616,0.874018 1.57441,0.583466 2.91497,1.39252 4.01576,2.43072 1.47993,1.37835 2.70591,3.17363 3.6945,5.39411 1.78819,4.01576 1.97245,7.77995 0.553939,11.2996 -1.41378,3.51851 -4.34056,6.26695 -8.77562,8.24058 -4.40198,1.96064 -8.37522,2.29135 -11.9268,1.00748 -3.54568,-1.28741 -6.21144,-3.93072 -7.99136,-7.92758 -1.80473,-4.05356 -2.00316,-7.82719 -0.601183,-11.3185 1.41024,-3.49253 4.28623,-6.20199 8.61853,-8.13073zm2.70709 5.58309c-3.08387,1.37245 -5.10474,3.13111 -6.06498,5.26183 -0.956696,2.13662 -0.943704,4.29686 0.033071,6.49136 0.974412,2.18977 2.563,3.64017 4.77521,4.34411 2.20394,0.698034 4.88387,0.349607 8.04333,-1.05709 3.12166,-1.39016 5.1449,-3.11221 6.07915,-5.16261 0.925987,-2.05394 0.882286,-4.21655 -0.126378,-6.48191 -1.01103,-2.27127 -2.60434,-3.75001 -4.77875,-4.44805 -2.16851,-0.689766 -4.82127,-0.346064 -7.96065,1.05237zm-3.23977 27.9178m1.69252 2.70946l25.0879 -15.6768 3.19017 5.10592 -20.8229 13.0122 7.93349 12.6957 -4.26379 2.66458 -11.1248 -17.8016zm12.0922 18.5398m1.75276 2.2441l23.5028 -18.3627 3.70631 4.7445 -23.5028 18.3615 -3.70631 -4.74332zm5.23939 6.92246m6.26222 7.46341l18.9804 -15.926 -5.68703 -6.77837 3.86694 -3.2445 15.2351 18.156 -3.86694 3.2445 -5.67285 -6.76065 -18.9804 15.926 -3.87521 -4.61694zm10.4386 12.1193m2.25473 2.03032l19.9571 -22.1646 16.4315 14.7957 -3.37678 3.75119 -11.9575 -10.7658 -4.42324 4.91222 11.126 10.0181 -3.36025 3.73111 -11.126 -10.0181 -5.43191 6.03309 12.3804 11.1473 -3.36379 3.73584 -16.8556 -15.176zm18.8705 15.8871m2.51694 1.82835l17.5312 -24.1288 4.87088 3.53859 -7.78349 10.7138 17.6256 -3.56222 6.55159 4.75986 -15.913 2.79804 -1.12441 21.6898 -6.30238 -4.57915 1.59922 -16.1434 -6.88585 1.15985 -5.29844 7.29333 -4.87088 -3.53977zm21.7394 15.6709m2.75316 1.40315l13.5402 -26.5749 5.22285 2.66103 1.83544 23.2879 9.04255 -17.7449 4.98663 2.54056 -13.5402 26.5749 -5.38939 -2.74607 -1.88032 -22.7883 -8.83113 17.3304 -4.98663 -2.54056zm24.4205 11.9304m2.63977 1.06654l11.1733 -27.6532 5.58191 2.25473 -11.1733 27.6544 -5.58191 -2.25591zm7.68546 3.93308m2.99056 0.857483l8.2205 -28.6702 5.7886 1.65945 -3.6508 12.73 15.3449 -9.37562 7.78349 2.23111 -13.9961 8.07286 6.36262 20.7662 -7.48939 -2.14843 -4.01812 -15.7158 -6.07325 3.44529 -2.48505 8.66459 -5.78742 -1.65945zm37.4257 9.55869m3.06733 0.376773l3.63426 -29.6032 5.81813 0.714569 9.68979 21.2552 2.42717 -19.767 5.55592 0.681498 -3.63544 29.6032 -6.00356 -0.73701 -9.56105 -20.7709 -2.37048 19.3052 -5.55474 -0.681498zm27.0225 3.37324m3.0319 -0.1063l-1.04055 -29.8064 22.0985 -0.772443 0.175985 5.04568 -16.0808 0.561025 0.231497 6.60711 14.9623 -0.52323 0.174804 5.01852 -14.9623 0.522049 0.283465 8.11302 16.6489 -0.581104 0.175985 5.02442 -22.6678 0.791341zm24.7595 -0.727561m15.4477 -12.9449l-0.612994 -4.98899 12.8811 -1.5815 1.44804 11.7922c-1.10552,1.36772 -2.78623,2.65749 -5.05041,3.87403 -2.26654,1.20827 -4.61458,1.96536 -7.04766,2.26418 -3.0945,0.380316 -5.876,0.0649608 -8.33743,-0.949609 -2.46142,-1.01929 -4.4197,-2.66103 -5.87482,-4.9382 -1.45512,-2.27717 -2.35631,-4.8319 -2.70591,-7.67128 -0.377954,-3.08151 -0.0661419,-5.90435 0.928349,-8.46144 1.00158,-2.55001 2.66458,-4.62285 5.00316,-6.20317 1.77402,-1.2189 4.07836,-1.99961 6.90356,-2.34686 3.67442,-0.450001 6.64372,-0.0307088 8.89255,1.25315 2.25827,1.28977 3.84922,3.25631 4.77639,5.90553l-5.79805 1.83898c-0.598821,-1.40315 -1.52599,-2.45788 -2.78032,-3.1571 -1.25433,-0.699215 -2.74017,-0.943704 -4.4634,-0.732286 -2.61143,0.321261 -4.58505,1.40315 -5.92561,3.24686 -1.34056,1.85079 -1.80355,4.39844 -1.40315,7.65829 0.431104,3.50788 1.53308,6.05199 3.31418,7.61813 1.77284,1.56615 3.92836,2.18977 6.45711,1.87914 1.25552,-0.154725 2.47914,-0.556301 3.68033,-1.20118 1.1941,-0.642522 2.20276,-1.37599 3.02009,-2.1815l-0.461812 -3.7571 -6.84333 0.839766zm16.5449 8.36223m2.91615 -0.836223l-8.2205 -28.6702 21.2552 -6.09451 1.39134 4.85198 -15.4666 4.43505 1.82127 6.35553 14.3918 -4.12678 1.38426 4.826 -14.3918 4.12678 2.2382 7.80357 16.0134 -4.59214 1.38662 4.83309 -21.8032 6.25159zm24.0426 -6.24687m2.76261 -1.28859l-12.6048 -27.0308 11.4922 -5.35868c2.88899,-1.34764 5.10002,-2.07993 6.63545,-2.20512 1.53426,-0.126378 2.98702,0.246851 4.35119,1.11969 1.36772,0.878743 2.41891,2.113 3.16418,3.71104 0.946066,2.02678 1.13032,3.98623 0.557482,5.86183 -0.575199,1.87087 -1.97245,3.54096 -4.1882,4.98781 1.50709,0.140552 2.83465,0.440553 3.98623,0.907089 1.15394,0.466537 2.86654,1.44449 5.14962,2.93977l5.7638 3.73348 -6.52679 3.04371 -6.69097 -4.04411c-2.38347,-1.44804 -3.95671,-2.32442 -4.72797,-2.63032 -0.771262,-0.307088 -1.49174,-0.424017 -2.16733,-0.361418 -0.67323,0.0685041 -1.63347,0.393308 -2.89253,0.980318l-1.09961 0.513781 5.26183 11.2843 -5.4638 2.54765zm-1.81182 -18.1489l4.03348 -1.8815c2.61851,-1.22008 4.20592,-2.09056 4.75631,-2.61615 0.545671,-0.52323 0.877562,-1.14449 0.995672,-1.85906 0.112205,-0.712207 -0.0129922,-1.47284 -0.390946,-2.28426 -0.426379,-0.912995 -1.01221,-1.52835 -1.75749,-1.8626 -0.745278,-0.334253 -1.59567,-0.367324 -2.55355,-0.103937 -0.467718,0.148819 -1.80945,0.735829 -4.02521,1.7693l-4.25434 1.98426 3.19607 6.85396zm26.6387 6.93782m2.53702 -1.29331l-13.5402 -26.5737 5.36458 -2.73308 13.5402 26.5737 -5.36458 2.73308zm17.6989 -9.95672m-6.37325 -32.2359l4.85907 -3.53033 11.0977 15.2752c1.44922,1.99489 2.3882,3.66379 2.8193,4.99017 0.549214,1.74804 0.514962,3.49725 -0.109843,5.24765 -0.621262,1.7563 -1.95001,3.36497 -3.97796,4.83899 -2.38229,1.73032 -4.69608,2.39765 -6.95317,1.99607 -2.24883,-0.400395 -4.32049,-1.88268 -6.19963,-4.45749l4.20592 -3.8634c1.06063,1.34174 1.97363,2.17205 2.7378,2.49213 1.15748,0.481891 2.27481,0.329529 3.34725,-0.450001 1.08426,-0.786617 1.62993,-1.65473 1.6252,-2.60552 0.00236221,-0.943704 -0.708664,-2.3941 -2.12953,-4.35001l-11.3221 -15.5835zm24.9627 18.4867m2.29016 -1.99016l-19.5674 -22.5095 16.6878 -14.5063 3.31182 3.80907 -12.143 10.5567 4.33702 4.98899 11.2985 -9.82208 3.2941 3.78899 -11.2996 9.82208 5.32679 6.1264 12.5729 -10.93 3.29883 3.79489 -17.1178 14.8808zm18.8351 -16.343m1.93583 -2.22757l-22.5083 -19.5674 5.91262 -6.80199 18.9048 9.2646 -11.8477 -17.3835 5.92797 -6.81852 22.5083 19.5674 -3.66733 4.21891 -17.7201 -15.404 13.8343 19.8745 -3.80434 4.37718 -21.5918 -10.95 17.7201 15.404 -3.66852 4.21891zm20.6883 -24.0225m-23.6776 -18.3898l6.31774 -10.1114c1.25197,-2.00316 2.2689,-3.44765 3.05316,-4.32521 0.77953,-0.878743 1.67599,-1.53898 2.69174,-1.98662 1.01575,-0.446458 2.11772,-0.649608 3.32481,-0.615356 1.20118,0.0295276 2.35276,0.388584 3.44174,1.0689 1.18347,0.740553 2.0752,1.73977 2.66694,2.9941 0.588191,1.25906 0.788979,2.58898 0.603545,3.98741 1.40788,-1.2567 2.91615,-1.9689 4.50946,-2.12009 1.60276,-0.153544 3.13229,0.229135 4.59214,1.14213 1.14922,0.718112 2.10237,1.68189 2.85591,2.89843 0.748821,1.213 1.16457,2.48741 1.23426,3.81733 0.0708664,1.32874 -0.242127,2.72245 -0.94016,4.17757 -0.440553,0.904727 -1.66772,2.99647 -3.67796,6.26695l-5.37994 8.61026 -25.2934 -15.8044zm7.40435 -2.48268l5.84884 3.65552 2.08938 -3.34489c1.2437,-1.99016 1.98662,-3.24568 2.22993,-3.76537 0.444096,-0.934255 0.575199,-1.81064 0.387403,-2.62442 -0.188977,-0.813782 -0.693309,-1.47284 -1.51182,-1.98544 -0.784254,-0.488978 -1.55197,-0.67323 -2.30906,-0.549214 -0.760632,0.129922 -1.4563,0.588191 -2.08701,1.37363 -0.374411,0.468899 -1.31457,1.90631 -2.81576,4.30867l-1.8319 2.93151zm10.0595 6.28585l6.75947 4.22482 2.95158 -4.72324c1.15158,-1.84253 1.83308,-3.0378 2.03623,-3.59883 0.338977,-0.844491 0.383859,-1.67599 0.152363,-2.48387 -0.238583,-0.812601 -0.804333,-1.50355 -1.70079,-2.06221 -0.75827,-0.474805 -1.5189,-0.687404 -2.27717,-0.654333 -0.762994,0.0413387 -1.48229,0.328347 -2.15788,0.871656 -0.675593,0.543309 -1.73859,1.98426 -3.18899,4.30513l-2.57481 4.12088zm22.1375 -10.8296m1.23426 -2.77206l-27.2469 -12.1311 8.99412 -20.1993 4.61104 2.05276 -6.54451 14.6989 6.03899 2.68938 6.08978 -13.6772 4.58623 2.04213 -6.0886 13.6772 7.41498 3.30119 6.77719 -15.2186 4.59214 2.04449 -9.22444 20.7201zm10.7244 -22.6442m0.942523 -2.89962l-28.3666 -9.21617 3.91891 -12.0603c0.985042,-3.03072 1.95709,-5.14726 2.91261,-6.35553 0.954334,-1.20827 2.21694,-2.01615 3.78663,-2.42009 1.5756,-0.400395 3.19489,-0.327166 4.87206,0.217324 2.12717,0.690947 3.68623,1.89213 4.66773,3.59056 0.974412,1.69725 1.2437,3.85867 0.79016,6.46419 1.1315,-1.0063 2.25591,-1.77166 3.38269,-2.29607 1.12796,-0.525592 3.01182,-1.11024 5.66222,-1.76103l6.66026 -1.6689 -2.2252 6.84805 -7.5201 2.13544c-2.68465,0.755908 -4.39844,1.30985 -5.14844,1.66418 -0.751183,0.354332 -1.32756,0.801971 -1.74213,1.33937 -0.408663,0.538584 -0.825593,1.46221 -1.25552,2.78387l-0.374411 1.15394 11.8418 3.84804 -1.8626 5.73309zm-14.5099 -11.0528l1.37599 -4.2319c0.891735,-2.74843 1.33819,-4.50238 1.32993,-5.26301 -0.01063,-0.755908 -0.238583,-1.42205 -0.680317,-1.99607 -0.444096,-0.568112 -1.08662,-0.995672 -1.93819,-1.27205 -0.957877,-0.310631 -1.80827,-0.302363 -2.56064,0.0153544 -0.752365,0.316536 -1.35709,0.916538 -1.81772,1.79646 -0.210237,0.442915 -0.695671,1.82481 -1.4504,4.15041l-1.4504 4.46458 7.19175 2.33623z"/>
  <polygon class="fil5" points="28.8946,276.786 28.6229,261.493 14.0008,257.022 28.4576,252.044 28.1942,236.752 37.4115,248.952 51.8683,243.975 43.0891,256.516 52.3053,268.736 37.6737,264.274 "/>
  <polygon class="fil5" points="483.876,245.058 483.604,260.342 498.07,265.319 483.438,269.792 483.175,285.085 474.397,272.571 459.766,277.044 468.982,264.813 460.193,252.272 474.659,257.25 "/>
 </g>
</svg>
